HIERARCHY
ROOT Hips
{
  OFFSET 265.287 66.7526 -254.649
  CHANNELS 6 Xposition Yposition Zposition Zrotation Xrotation Yrotation
  JOINT LeftUpLeg
  {
    OFFSET 8.64259 1.95398 -2.38835
    CHANNELS 3 Zrotation Xrotation Yrotation
    JOINT LeftLeg
    {
      OFFSET 43.7702 0 0
      CHANNELS 3 Zrotation Xrotation Yrotation
      JOINT LeftFoot
      {
        OFFSET 40.6238 0 0
        CHANNELS 3 Zrotation Xrotation Yrotation
        JOINT LeftToeBase
        {
          OFFSET 12.7242 0 0
          CHANNELS 3 Zrotation Xrotation Yrotation
          End Site
          {
            OFFSET 0 0 0
          }
        }
      }
    }
  }
  JOINT RightUpLeg
  {
    OFFSET -8.2249 1.95398 -2.59336
    CHANNELS 3 Zrotation Xrotation Yrotation
    JOINT RightLeg
    {
      OFFSET 43.5653 0 0
      CHANNELS 3 Zrotation Xrotation Yrotation
      JOINT RightFoot
      {
        OFFSET 40.6238 0 0
        CHANNELS 3 Zrotation Xrotation Yrotation
        JOINT RightToeBase
        {
          OFFSET 12.7242 0 0
          CHANNELS 3 Zrotation Xrotation Yrotation
          End Site
          {
            OFFSET 0 0 0
          }
        }
      }
    }
  }
  JOINT Spine
  {
    OFFSET 0.165834 0.87714 6.61349
    CHANNELS 3 Zrotation Xrotation Yrotation
    JOINT Spine1
    {
      OFFSET 7.38963 1.71661e-005 0
      CHANNELS 3 Zrotation Xrotation Yrotation
      JOINT Spine2
      {
        OFFSET 11.9445 1.14441e-005 0
        CHANNELS 3 Zrotation Xrotation Yrotation
        JOINT Spine3
        {
          OFFSET 14.7254 4.19617e-005 0
          CHANNELS 3 Zrotation Xrotation Yrotation
          JOINT Spine4
          {
            OFFSET 10.9679 0 0
            CHANNELS 3 Zrotation Xrotation Yrotation
            JOINT RightShoulder
            {
              OFFSET 2.46616 -1.6653 3.69651
              CHANNELS 3 Zrotation Xrotation Yrotation
              JOINT RightArm
              {
                OFFSET 13.0012 0 0
                CHANNELS 3 Zrotation Xrotation Yrotation
                JOINT RightForeArm
                {
                  OFFSET 28.7848 1.52588e-005 0
                  CHANNELS 3 Zrotation Xrotation Yrotation
                  JOINT RightHand
                  {
                    OFFSET 26.5688 1.52588e-005 0
                    CHANNELS 3 Zrotation Xrotation Yrotation
                    End Site
                    {
                      OFFSET 0 0 0
                    }
                  }
                }
              }
            }
            JOINT LeftShoulder
            {
              OFFSET 2.38034 -1.29275 -3.7523
              CHANNELS 3 Zrotation Xrotation Yrotation
              JOINT LeftArm
              {
                OFFSET 16.3182 6.10351e-005 0
                CHANNELS 3 Zrotation Xrotation Yrotation
                JOINT LeftForeArm
                {
                  OFFSET 27.0901 0 0
                  CHANNELS 3 Zrotation Xrotation Yrotation
                  JOINT LeftHand
                  {
                    OFFSET 24.5451 1.52588e-005 0
                    CHANNELS 3 Zrotation Xrotation Yrotation
                    End Site
                    {
                      OFFSET 0 0 0
                    }
                  }
                }
              }
            }
            JOINT Neck
            {
              OFFSET 5.0226 -0.0266342 0
              CHANNELS 3 Zrotation Xrotation Yrotation
              JOINT Head
              {
                OFFSET 6.69364 2.86102e-005 0
                CHANNELS 3 Zrotation Xrotation Yrotation
                End Site
                {
                  OFFSET 0 0 0
                }
              }
            }
          }
        }
      }
    }
  }
}
MOTION
Frames:	12
Frame Time:	0.0416667
-75.6939 88.6091 78.7597 88.3102 46.85 92.5261 -172.942 36.8787 88.162 -25.4703 15.3766 -1.63413 45.8789 -5.83278 9.0071 41.9443 -4.09102 -2.38608 172.822 9.10832 88.8573 -61.4965 -7.39573 -1.07693 50.0393 4.68139 11.2067 50.14 -3.18826 -1.43323 -0.135468 9.12098 -89.3964 8.63041 -0.0027744 1.19434 -3.0411 0.0497996 1.19329 -25.5721 -0.361574 1.13829 -5.55949 -0.361566 1.13829 98.489 -57.1197 -87.4281 15.6871 -17.3606 -4.87813 2.16873 -14.165 -22.2033 -8.96596 -0.332841 -0.907269 -85.5942 -50.4703 85.1831 -17.8549 8.97062 -11.9014 1.72653 7.30227 -6.50539 7.21411 -0.469679 -8.88908 11.049 1.86215 -3.32373 -5.14381 2.51304 5.77049 
-73.0196 88.8181 75.042 82.076 49.6079 97.625 -171.84 40.7839 86.9905 -31.2265 17.7733 -2.72237 51.9046 -2.77124 9.55794 42.9224 -4.41588 -2.46075 171.332 28.5208 90.2807 -74.1918 -8.06183 -0.683915 55.2083 3.18859 17.3323 48.6333 -2.84439 0.232839 -0.228139 10.3048 -89.5718 6.26779 -0.274207 0.847602 -5.40338 -0.236657 0.858839 -27.9373 -0.516274 0.726017 -7.92468 -0.516283 0.72601 98.6579 -57.2023 -87.181 15.0374 -14.861 2.81339 1.96812 -20.7289 -18.2023 -6.94302 -0.322619 0.185293 -85.0927 -49.0675 85.7563 -16.9873 8.22175 -11.6139 1.94248 -1.95352 -15.3209 10.0496 -0.6568 -9.58915 17.3194 1.39823 -2.83516 0.0363421 2.37045 6.39849 
-71.0497 88.0882 71.5313 72.032 52.1849 106.719 -173.435 47.5353 85.6373 -38.4936 18.5669 -1.52258 57.8232 0.570608 10.4069 47.2281 -5.64031 0.416368 171.915 46.7006 91.1797 -68.7676 -13.6895 0.350984 63.7157 1.50732 20.0265 53.3144 -3.03118 4.65238 -0.545386 11.1847 -90.0757 4.50251 -1.12069 -0.136229 -7.16798 -1.12558 -0.0867791 -29.7062 -1.02793 -0.466773 -9.69359 -1.02793 -0.46678 99.7174 -55.2933 -85.7475 18.2927 -11.9338 14.5653 2.71654 -17.5963 -16.9709 -11.3186 -0.572217 0.710425 -84.9615 -47.2703 85.7134 -19.4136 8.00136 -5.59305 0.396808 -6.57217 -17.2765 7.53971 -0.720092 -11.6585 22.1805 1.56312 -2.90746 5.56089 3.06073 7.61537 
-68.856 85.3993 68.1448 67.0965 52.765 109.878 -175.111 53.1959 83.1084 -49.8214 16.9263 -0.318995 63.6895 5.23188 16.131 51.9036 -6.81487 2.97616 176.544 60.9695 86.1722 -60.6488 -8.93707 0.0598864 64.2097 1.31796 17.7248 53.7235 -3.05936 4.97756 -0.613287 12.1477 -90.3541 2.57292 -1.36313 -0.71219 -9.09748 -1.39314 -0.651502 -31.635 -1.08608 -1.08895 -11.6224 -1.08607 -1.08895 99.2576 -55.4543 -86.412 22.6132 -7.02379 26.5456 2.76369 -11.2951 -16.4773 -13.6936 -0.532308 -0.595905 -87.8307 -48.7832 81.5298 -20.0126 7.37902 -2.55924 -1.72918 -13.0597 -10.8077 7.05222 -0.744005 -12.2555 24.8231 1.13306 -3.48066 11.4154 3.57438 9.46896 
-64.501 80.6738 63.0625 64.9105 55.0939 108.697 -174.287 56.0909 77.0087 -63.7878 17.0342 -0.182441 70.6102 12.4881 25.6944 49.4802 -6.33388 0.532655 -174.23 68.8217 75.4055 -61.303 -11.5284 -1.47952 63.2384 2.03916 18.0793 54.9779 -3.29001 4.12724 -0.408349 12.5697 -90.7449 1.72461 -1.10094 -1.48123 -9.94664 -1.16508 -1.43134 -32.4765 -0.604967 -1.74355 -12.4638 -0.604958 -1.74354 97.9917 -58.6727 -88.0324 26.4117 -4.99387 25.5363 3.87944 -6.21678 -10.4427 -8.20609 -0.149952 -3.24366 -91.9003 -52.5873 76.2679 -15.0698 10.249 -15.9713 -3.14553 -15.0154 -3.06628 9.61317 -0.792208 -11.0467 22.2974 -0.617102 0.0403686 16.9028 1.24379 9.95621 
-57.4945 76.1289 55.8759 68.6799 55.6987 106.682 -177.58 53.0504 78.7492 -77.0264 18.0397 0.806938 74.1405 19.7024 37.4724 51.9457 -6.70942 3.51811 -174.388 68.6789 80.0682 -77.3025 -7.28326 -3.06812 69.3227 -1.10797 15.5285 46.6804 -2.46193 2.89595 0.0199464 12.0994 -91.0484 2.66712 -0.370816 -2.05076 -9.00538 -0.460697 -2.03246 -31.5275 0.262513 -2.0674 -11.5148 0.262517 -2.06741 94.5071 -60.9291 -92.6313 13.5585 -12.9892 -1.50917 6.55856 -6.94484 -9.66977 -1.83165 -0.0413591 -4.16973 -93.9045 -54.0184 73.7411 -6.25465 7.22803 -39.9652 -3.65007 -14.4677 -3.57899 16.4218 -1.01804 -10.0452 23.1809 -0.489013 4.76942 14.5588 -0.976624 6.7114 
-49.5964 74.0699 47.907 74.4913 54.3965 105.54 175.085 46.9009 87.2052 -88.787 15.9337 1.93305 76.4991 18.9608 30.3719 61.0079 -7.60629 12.5286 175.687 61.9735 95.2305 -85.9709 -12.8816 -2.39725 71.0585 -8.29468 -3.76436 54.9058 -3.44188 2.6962 -0.300927 10.9924 -91.009 4.87398 -1.01591 -1.95693 -6.79798 -1.10102 -1.91034 -29.3219 -0.380963 -2.17167 -9.30928 -0.380954 -2.17167 92.5378 -50.4493 -97.2001 5.38497 -1.82666 -48.5118 2.83257 -6.55169 -15.2258 -7.35449 -0.191194 -2.31236 -93.1519 -45.6101 72.5629 2.00568 -7.69672 -62.0179 0.61525 -4.2639 -11.5382 27.3262 -0.758801 -6.95358 23.8687 1.3889 2.41685 1.94748 0.887789 8.60082 
-39.8887 77.613 37.7295 74.2936 49.744 103.386 177.89 34.1154 86.1683 -81.8037 17.4626 2.04726 73.1996 14.3999 27.1676 67.3717 -8.06252 15.8713 178.489 49.9669 94.0515 -83.0202 -14.3491 -2.814 76.4346 -11.8146 -4.20706 57.4261 -3.85785 1.96861 -0.128911 9.4453 -90.5757 7.97962 -0.508653 -1.10744 -3.69167 -0.556884 -1.08399 -26.2233 -0.152306 -1.20909 -6.21062 -0.152326 -1.2091 96.9056 -25.4677 -93.8761 10.2234 17.7027 -77.0292 -7.24802 -8.42678 -29.3867 -10.3332 -0.248822 -2.42598 -89.3557 -31.2885 74.6936 -0.00390399 -25.7826 -78.3521 13.9528 6.6929 -29.0992 25.6926 -0.543514 -6.17931 25.9129 1.78058 -1.4691 -11.7151 1.49696 10.9581 
-25.3048 88.5076 22.4897 74.7378 45.5989 100.459 -177.506 12.7711 88.2255 -51.9867 15.1925 2.08742 43.7383 -5.00231 0.868109 64.8603 -12.0396 -3.72901 -179.852 26.2296 88.7376 -58.7129 -21.0325 -3.62371 63.1915 0.579566 10.863 56.9058 -3.32858 5.39047 0.0813197 7.60892 -89.9319 11.6559 0.193712 0.115471 -0.0149992 0.198604 0.106835 -22.5502 0.15007 0.168359 -2.53754 0.150046 0.168348 101.006 -11.7138 -85.4925 8.47234 30.5235 -80.0497 -10.4035 -5.3575 -35.3064 -8.54936 -0.0457436 -4.827 -85.3982 -23.4408 80.4015 1.46909 -36.5121 -76.6337 21.1694 7.72711 -45.4616 30.0396 -0.264747 -4.96929 3.70587 2.59942 -6.23007 -4.75638 3.48807 12.4144 
-9.98157 101.596 7.98947 77.0575 51.5676 98.353 -178.512 14.6298 90.3649 -55.1115 14.5541 3.32755 28.8575 -9.09022 -8.82922 28.1796 -0.48524 7.56962 177.744 -2.9059 85.0281 -16.3023 -16.4582 -3.56522 21.7288 13.1156 36.1687 23.3066 0.910933 -0.189528 -0.0493292 6.83395 -89.756 13.2067 0.0192888 0.477095 1.53564 0.0402857 0.475776 -20.9986 -0.124991 0.460832 -0.985933 -0.124985 0.460837 104.054 -11.2528 -76.5047 -0.0151672 38.2123 -65.5222 -7.04926 3.71772 -30.5189 -8.66763 0.0119075 -5.67652 -83.1432 -25.6425 85.6844 10.3424 -38.0082 -61.2372 13.8258 2.4874 -38.1964 32.8385 0.203274 -3.44498 -20.02 1.99374 -9.27796 3.2141 2.45875 12.4769 
0.514043 111.663 -2.84365 85.0438 49.7416 94.0426 -176.914 29.5146 92.2932 -62.3994 17.2399 1.5925 36.1454 -7.86586 -3.93135 23.6452 0.598358 6.26052 175.419 0.232986 89.9398 -53.3989 -23.2256 -2.98508 24.2353 15.049 25.8557 -2.66762 6.65407 -4.50165 0.397379 8.02282 -89.9173 10.8315 0.829927 0.108139 -0.839106 0.833887 0.0715012 -23.3766 0.759053 0.352583 -3.36395 0.759033 0.352573 103.772 -9.6396 -77.317 -23.6895 30.9853 -25.3906 0.707736 24.8063 -20.4482 -7.80761 -0.0674393 -4.46289 -82.3077 -22.953 86.9467 29.9606 -22.8957 -20.8041 4.57033 -5.53987 -16.85 25.7895 -0.0235768 -4.03858 -18.5569 3.47847 -11.9677 5.6944 4.48107 14.9786 
10.1604 116.919 -12.8751 86.8024 41.7319 94.8342 -177.578 37.5942 94.7919 -44.6702 19.2821 2.83724 33.9854 -8.5583 -5.98932 31.0413 -0.89298 1.90731 -179.993 18.9305 82.5016 -100.086 -24.9448 -4.12907 33.7913 12.6681 14.6642 5.91505 6.26592 -8.68064 0.254968 9.07285 -89.7084 8.7261 0.637984 0.531811 -2.94478 0.660773 0.503215 -25.4798 0.448647 0.698957 -5.46714 0.448656 0.698959 101.185 -14.5449 -84.5449 -26.0375 1.44065 1.42503 4.37503 16.805 -9.02577 -5.5821 -0.0886975 -3.65394 -81.848 -24.3796 88.1936 14.8816 3.41252 15.8803 -1.1702 -7.58808 -1.73251 16.2437 -0.165413 -4.84339 -15.3735 7.43754 -17.9121 6.42921 9.58066 22.7672 
